<mxfile host="app.diagrams.net" modified="2023-04-09T13:40:15.808Z" agent="Mozilla/5.0 (Windows NT 10.0; Win64; x64) AppleWebKit/537.36 (KHTML, like Gecko) Chrome/111.0.0.0 Safari/537.36" etag="Do6w5edik6FGdJ3RrJQL" version="21.1.5" type="github">
  <diagram name="ページ1" id="b6cP6s-2PIrbOrg8djCM">
    <mxGraphModel dx="1687" dy="889" grid="1" gridSize="10" guides="1" tooltips="1" connect="1" arrows="1" fold="1" page="1" pageScale="1" pageWidth="827" pageHeight="1169" math="0" shadow="0">
      <root>
        <mxCell id="0" />
        <mxCell id="1" parent="0" />
        <mxCell id="jeN-R2pzI65hk0BV5s3f-5" style="edgeStyle=orthogonalEdgeStyle;rounded=0;orthogonalLoop=1;jettySize=auto;html=1;" edge="1" parent="1" source="jeN-R2pzI65hk0BV5s3f-4" target="jeN-R2pzI65hk0BV5s3f-13">
          <mxGeometry relative="1" as="geometry">
            <mxPoint x="245" y="200" as="targetPoint" />
          </mxGeometry>
        </mxCell>
        <mxCell id="jeN-R2pzI65hk0BV5s3f-4" value="Actor" style="shape=umlActor;verticalLabelPosition=bottom;verticalAlign=top;html=1;" vertex="1" parent="1">
          <mxGeometry x="431.25" y="20" width="30" height="60" as="geometry" />
        </mxCell>
        <mxCell id="jeN-R2pzI65hk0BV5s3f-6" value="AWS Cloud" style="points=[[0,0],[0.25,0],[0.5,0],[0.75,0],[1,0],[1,0.25],[1,0.5],[1,0.75],[1,1],[0.75,1],[0.5,1],[0.25,1],[0,1],[0,0.75],[0,0.5],[0,0.25]];outlineConnect=0;gradientColor=none;html=1;whiteSpace=wrap;fontSize=12;fontStyle=0;container=1;pointerEvents=0;collapsible=0;recursiveResize=0;shape=mxgraph.aws4.group;grIcon=mxgraph.aws4.group_aws_cloud_alt;strokeColor=#232F3E;fillColor=none;verticalAlign=top;align=left;spacingLeft=30;fontColor=#232F3E;dashed=0;" vertex="1" parent="1">
          <mxGeometry x="92.5" y="180" width="697.5" height="810" as="geometry" />
        </mxCell>
        <mxCell id="jeN-R2pzI65hk0BV5s3f-13" value="EC2 instance contents" style="points=[[0,0],[0.25,0],[0.5,0],[0.75,0],[1,0],[1,0.25],[1,0.5],[1,0.75],[1,1],[0.75,1],[0.5,1],[0.25,1],[0,1],[0,0.75],[0,0.5],[0,0.25]];outlineConnect=0;gradientColor=none;html=1;whiteSpace=wrap;fontSize=12;fontStyle=0;container=1;pointerEvents=0;collapsible=0;recursiveResize=0;shape=mxgraph.aws4.group;grIcon=mxgraph.aws4.group_ec2_instance_contents;strokeColor=#D86613;fillColor=none;verticalAlign=top;align=left;spacingLeft=30;fontColor=#D86613;dashed=0;" vertex="1" parent="jeN-R2pzI65hk0BV5s3f-6">
          <mxGeometry x="42.5" y="170" width="622.5" height="600" as="geometry" />
        </mxCell>
        <mxCell id="jeN-R2pzI65hk0BV5s3f-55" value="Private subnet" style="points=[[0,0],[0.25,0],[0.5,0],[0.75,0],[1,0],[1,0.25],[1,0.5],[1,0.75],[1,1],[0.75,1],[0.5,1],[0.25,1],[0,1],[0,0.75],[0,0.5],[0,0.25]];outlineConnect=0;gradientColor=none;html=1;whiteSpace=wrap;fontSize=12;fontStyle=0;container=1;pointerEvents=0;collapsible=0;recursiveResize=0;shape=mxgraph.aws4.group;grIcon=mxgraph.aws4.group_security_group;grStroke=0;strokeColor=#147EBA;fillColor=#E6F2F8;verticalAlign=top;align=left;spacingLeft=30;fontColor=#147EBA;dashed=0;" vertex="1" parent="jeN-R2pzI65hk0BV5s3f-13">
          <mxGeometry x="35" y="150" width="555" height="410" as="geometry" />
        </mxCell>
        <mxCell id="jeN-R2pzI65hk0BV5s3f-56" value="Public subnet" style="points=[[0,0],[0.25,0],[0.5,0],[0.75,0],[1,0],[1,0.25],[1,0.5],[1,0.75],[1,1],[0.75,1],[0.5,1],[0.25,1],[0,1],[0,0.75],[0,0.5],[0,0.25]];outlineConnect=0;gradientColor=none;html=1;whiteSpace=wrap;fontSize=12;fontStyle=0;container=1;pointerEvents=0;collapsible=0;recursiveResize=0;shape=mxgraph.aws4.group;grIcon=mxgraph.aws4.group_security_group;grStroke=0;strokeColor=#248814;fillColor=#E9F3E6;verticalAlign=top;align=left;spacingLeft=30;fontColor=#248814;dashed=0;" vertex="1" parent="jeN-R2pzI65hk0BV5s3f-13">
          <mxGeometry x="35" y="30" width="555" height="100" as="geometry" />
        </mxCell>
        <mxCell id="jeN-R2pzI65hk0BV5s3f-15" style="edgeStyle=orthogonalEdgeStyle;rounded=0;orthogonalLoop=1;jettySize=auto;html=1;" edge="1" parent="jeN-R2pzI65hk0BV5s3f-6" source="jeN-R2pzI65hk0BV5s3f-8">
          <mxGeometry relative="1" as="geometry">
            <mxPoint x="357.5" y="79" as="targetPoint" />
          </mxGeometry>
        </mxCell>
        <mxCell id="jeN-R2pzI65hk0BV5s3f-8" value="" style="sketch=0;points=[[0,0,0],[0.25,0,0],[0.5,0,0],[0.75,0,0],[1,0,0],[0,1,0],[0.25,1,0],[0.5,1,0],[0.75,1,0],[1,1,0],[0,0.25,0],[0,0.5,0],[0,0.75,0],[1,0.25,0],[1,0.5,0],[1,0.75,0]];outlineConnect=0;fontColor=#232F3E;gradientColor=#945DF2;gradientDirection=north;fillColor=#5A30B5;strokeColor=#ffffff;dashed=0;verticalLabelPosition=bottom;verticalAlign=top;align=center;html=1;fontSize=12;fontStyle=0;aspect=fixed;shape=mxgraph.aws4.resourceIcon;resIcon=mxgraph.aws4.route_53;" vertex="1" parent="jeN-R2pzI65hk0BV5s3f-6">
          <mxGeometry x="567.5" y="40" width="78" height="78" as="geometry" />
        </mxCell>
        <mxCell id="jeN-R2pzI65hk0BV5s3f-9" value="" style="sketch=0;points=[[0,0,0],[0.25,0,0],[0.5,0,0],[0.75,0,0],[1,0,0],[0,1,0],[0.25,1,0],[0.5,1,0],[0.75,1,0],[1,1,0],[0,0.25,0],[0,0.5,0],[0,0.75,0],[1,0.25,0],[1,0.5,0],[1,0.75,0]];outlineConnect=0;fontColor=#232F3E;gradientColor=#F54749;gradientDirection=north;fillColor=#C7131F;strokeColor=#ffffff;dashed=0;verticalLabelPosition=bottom;verticalAlign=top;align=center;html=1;fontSize=12;fontStyle=0;aspect=fixed;shape=mxgraph.aws4.resourceIcon;resIcon=mxgraph.aws4.certificate_manager_3;" vertex="1" parent="jeN-R2pzI65hk0BV5s3f-6">
          <mxGeometry x="645.5" y="40" width="78" height="78" as="geometry" />
        </mxCell>
        <mxCell id="jeN-R2pzI65hk0BV5s3f-24" style="edgeStyle=orthogonalEdgeStyle;rounded=0;orthogonalLoop=1;jettySize=auto;html=1;strokeColor=none;" edge="1" parent="1" source="jeN-R2pzI65hk0BV5s3f-20" target="jeN-R2pzI65hk0BV5s3f-21">
          <mxGeometry relative="1" as="geometry">
            <Array as="points">
              <mxPoint x="275" y="634" />
            </Array>
          </mxGeometry>
        </mxCell>
        <mxCell id="jeN-R2pzI65hk0BV5s3f-25" style="rounded=0;orthogonalLoop=1;jettySize=auto;html=1;entryX=0.5;entryY=0;entryDx=0;entryDy=0;entryPerimeter=0;" edge="1" parent="1" source="jeN-R2pzI65hk0BV5s3f-20" target="jeN-R2pzI65hk0BV5s3f-21">
          <mxGeometry relative="1" as="geometry" />
        </mxCell>
        <mxCell id="jeN-R2pzI65hk0BV5s3f-28" style="edgeStyle=orthogonalEdgeStyle;rounded=0;orthogonalLoop=1;jettySize=auto;html=1;" edge="1" parent="1" source="jeN-R2pzI65hk0BV5s3f-20" target="jeN-R2pzI65hk0BV5s3f-26">
          <mxGeometry relative="1" as="geometry" />
        </mxCell>
        <mxCell id="jeN-R2pzI65hk0BV5s3f-29" style="rounded=0;orthogonalLoop=1;jettySize=auto;html=1;entryX=0.5;entryY=0;entryDx=0;entryDy=0;entryPerimeter=0;" edge="1" parent="1" source="jeN-R2pzI65hk0BV5s3f-20" target="jeN-R2pzI65hk0BV5s3f-27">
          <mxGeometry relative="1" as="geometry" />
        </mxCell>
        <mxCell id="jeN-R2pzI65hk0BV5s3f-20" value="Ingress" style="sketch=0;html=1;dashed=0;whitespace=wrap;fillColor=#2875E2;strokeColor=#ffffff;points=[[0.005,0.63,0],[0.1,0.2,0],[0.9,0.2,0],[0.5,0,0],[0.995,0.63,0],[0.72,0.99,0],[0.5,1,0],[0.28,0.99,0]];verticalLabelPosition=bottom;align=center;verticalAlign=top;shape=mxgraph.kubernetes.icon;prIcon=ing" vertex="1" parent="1">
          <mxGeometry x="421.25" y="610" width="50" height="48" as="geometry" />
        </mxCell>
        <mxCell id="jeN-R2pzI65hk0BV5s3f-44" style="rounded=0;orthogonalLoop=1;jettySize=auto;html=1;" edge="1" parent="1" target="jeN-R2pzI65hk0BV5s3f-38">
          <mxGeometry relative="1" as="geometry">
            <mxPoint x="270" y="770" as="sourcePoint" />
          </mxGeometry>
        </mxCell>
        <mxCell id="jeN-R2pzI65hk0BV5s3f-45" style="rounded=0;orthogonalLoop=1;jettySize=auto;html=1;entryX=0.5;entryY=0;entryDx=0;entryDy=0;entryPerimeter=0;" edge="1" parent="1" source="jeN-R2pzI65hk0BV5s3f-21" target="jeN-R2pzI65hk0BV5s3f-37">
          <mxGeometry relative="1" as="geometry" />
        </mxCell>
        <mxCell id="jeN-R2pzI65hk0BV5s3f-21" value="" style="sketch=0;html=1;dashed=0;whitespace=wrap;fillColor=#2875E2;strokeColor=#ffffff;points=[[0.005,0.63,0],[0.1,0.2,0],[0.9,0.2,0],[0.5,0,0],[0.995,0.63,0],[0.72,0.99,0],[0.5,1,0],[0.28,0.99,0]];verticalLabelPosition=bottom;align=center;verticalAlign=top;shape=mxgraph.kubernetes.icon;prIcon=svc" vertex="1" parent="1">
          <mxGeometry x="250" y="730" width="50" height="48" as="geometry" />
        </mxCell>
        <mxCell id="jeN-R2pzI65hk0BV5s3f-32" style="edgeStyle=orthogonalEdgeStyle;rounded=0;orthogonalLoop=1;jettySize=auto;html=1;entryX=0.5;entryY=0;entryDx=0;entryDy=0;entryPerimeter=0;" edge="1" parent="1" source="jeN-R2pzI65hk0BV5s3f-22" target="jeN-R2pzI65hk0BV5s3f-31">
          <mxGeometry relative="1" as="geometry" />
        </mxCell>
        <mxCell id="jeN-R2pzI65hk0BV5s3f-22" value="" style="sketch=0;html=1;dashed=0;whitespace=wrap;fillColor=#2875E2;strokeColor=#ffffff;points=[[0.005,0.63,0],[0.1,0.2,0],[0.9,0.2,0],[0.5,0,0],[0.995,0.63,0],[0.72,0.99,0],[0.5,1,0],[0.28,0.99,0]];verticalLabelPosition=bottom;align=center;verticalAlign=top;shape=mxgraph.kubernetes.icon;prIcon=svc" vertex="1" parent="1">
          <mxGeometry x="421.25" y="420" width="50" height="48" as="geometry" />
        </mxCell>
        <mxCell id="jeN-R2pzI65hk0BV5s3f-46" style="rounded=0;orthogonalLoop=1;jettySize=auto;html=1;entryX=0.5;entryY=0;entryDx=0;entryDy=0;entryPerimeter=0;" edge="1" parent="1" source="jeN-R2pzI65hk0BV5s3f-26" target="jeN-R2pzI65hk0BV5s3f-36">
          <mxGeometry relative="1" as="geometry" />
        </mxCell>
        <mxCell id="jeN-R2pzI65hk0BV5s3f-47" style="edgeStyle=orthogonalEdgeStyle;rounded=0;orthogonalLoop=1;jettySize=auto;html=1;entryX=0.5;entryY=0;entryDx=0;entryDy=0;entryPerimeter=0;" edge="1" parent="1" source="jeN-R2pzI65hk0BV5s3f-26" target="jeN-R2pzI65hk0BV5s3f-35">
          <mxGeometry relative="1" as="geometry" />
        </mxCell>
        <mxCell id="jeN-R2pzI65hk0BV5s3f-49" style="rounded=0;orthogonalLoop=1;jettySize=auto;html=1;exitX=0.72;exitY=0.99;exitDx=0;exitDy=0;exitPerimeter=0;entryX=0.5;entryY=0;entryDx=0;entryDy=0;entryPerimeter=0;" edge="1" parent="1" source="jeN-R2pzI65hk0BV5s3f-26" target="jeN-R2pzI65hk0BV5s3f-40">
          <mxGeometry relative="1" as="geometry" />
        </mxCell>
        <mxCell id="jeN-R2pzI65hk0BV5s3f-26" value="" style="sketch=0;html=1;dashed=0;whitespace=wrap;fillColor=#2875E2;strokeColor=#ffffff;points=[[0.005,0.63,0],[0.1,0.2,0],[0.9,0.2,0],[0.5,0,0],[0.995,0.63,0],[0.72,0.99,0],[0.5,1,0],[0.28,0.99,0]];verticalLabelPosition=bottom;align=center;verticalAlign=top;shape=mxgraph.kubernetes.icon;prIcon=svc" vertex="1" parent="1">
          <mxGeometry x="421.25" y="730" width="50" height="48" as="geometry" />
        </mxCell>
        <mxCell id="jeN-R2pzI65hk0BV5s3f-50" style="rounded=0;orthogonalLoop=1;jettySize=auto;html=1;entryX=0.5;entryY=0;entryDx=0;entryDy=0;entryPerimeter=0;" edge="1" parent="1" source="jeN-R2pzI65hk0BV5s3f-27" target="jeN-R2pzI65hk0BV5s3f-42">
          <mxGeometry relative="1" as="geometry" />
        </mxCell>
        <mxCell id="jeN-R2pzI65hk0BV5s3f-52" style="rounded=0;orthogonalLoop=1;jettySize=auto;html=1;exitX=0.5;exitY=1;exitDx=0;exitDy=0;exitPerimeter=0;entryX=0.5;entryY=0;entryDx=0;entryDy=0;entryPerimeter=0;" edge="1" parent="1" source="jeN-R2pzI65hk0BV5s3f-27" target="jeN-R2pzI65hk0BV5s3f-41">
          <mxGeometry relative="1" as="geometry" />
        </mxCell>
        <mxCell id="jeN-R2pzI65hk0BV5s3f-53" style="rounded=0;orthogonalLoop=1;jettySize=auto;html=1;exitX=0.72;exitY=0.99;exitDx=0;exitDy=0;exitPerimeter=0;entryX=0.5;entryY=0;entryDx=0;entryDy=0;entryPerimeter=0;" edge="1" parent="1" source="jeN-R2pzI65hk0BV5s3f-27" target="jeN-R2pzI65hk0BV5s3f-43">
          <mxGeometry relative="1" as="geometry" />
        </mxCell>
        <mxCell id="jeN-R2pzI65hk0BV5s3f-27" value="" style="sketch=0;html=1;dashed=0;whitespace=wrap;fillColor=#2875E2;strokeColor=#ffffff;points=[[0.005,0.63,0],[0.1,0.2,0],[0.9,0.2,0],[0.5,0,0],[0.995,0.63,0],[0.72,0.99,0],[0.5,1,0],[0.28,0.99,0]];verticalLabelPosition=bottom;align=center;verticalAlign=top;shape=mxgraph.kubernetes.icon;prIcon=svc" vertex="1" parent="1">
          <mxGeometry x="590" y="730" width="50" height="48" as="geometry" />
        </mxCell>
        <mxCell id="jeN-R2pzI65hk0BV5s3f-31" value="nginx-ingress-controller" style="sketch=0;html=1;dashed=0;whitespace=wrap;fillColor=#2875E2;strokeColor=#ffffff;points=[[0.005,0.63,0],[0.1,0.2,0],[0.9,0.2,0],[0.5,0,0],[0.995,0.63,0],[0.72,0.99,0],[0.5,1,0],[0.28,0.99,0]];verticalLabelPosition=bottom;align=center;verticalAlign=top;shape=mxgraph.kubernetes.icon;prIcon=pod" vertex="1" parent="1">
          <mxGeometry x="421.25" y="530" width="50" height="48" as="geometry" />
        </mxCell>
        <mxCell id="jeN-R2pzI65hk0BV5s3f-35" value="" style="sketch=0;html=1;dashed=0;whitespace=wrap;fillColor=#2875E2;strokeColor=#ffffff;points=[[0.005,0.63,0],[0.1,0.2,0],[0.9,0.2,0],[0.5,0,0],[0.995,0.63,0],[0.72,0.99,0],[0.5,1,0],[0.28,0.99,0]];verticalLabelPosition=bottom;align=center;verticalAlign=top;shape=mxgraph.kubernetes.icon;prIcon=pod" vertex="1" parent="1">
          <mxGeometry x="421.25" y="830" width="50" height="48" as="geometry" />
        </mxCell>
        <mxCell id="jeN-R2pzI65hk0BV5s3f-36" value="" style="sketch=0;html=1;dashed=0;whitespace=wrap;fillColor=#2875E2;strokeColor=#ffffff;points=[[0.005,0.63,0],[0.1,0.2,0],[0.9,0.2,0],[0.5,0,0],[0.995,0.63,0],[0.72,0.99,0],[0.5,1,0],[0.28,0.99,0]];verticalLabelPosition=bottom;align=center;verticalAlign=top;shape=mxgraph.kubernetes.icon;prIcon=pod" vertex="1" parent="1">
          <mxGeometry x="371.25" y="830" width="50" height="48" as="geometry" />
        </mxCell>
        <mxCell id="jeN-R2pzI65hk0BV5s3f-37" value="" style="sketch=0;html=1;dashed=0;whitespace=wrap;fillColor=#2875E2;strokeColor=#ffffff;points=[[0.005,0.63,0],[0.1,0.2,0],[0.9,0.2,0],[0.5,0,0],[0.995,0.63,0],[0.72,0.99,0],[0.5,1,0],[0.28,0.99,0]];verticalLabelPosition=bottom;align=center;verticalAlign=top;shape=mxgraph.kubernetes.icon;prIcon=pod" vertex="1" parent="1">
          <mxGeometry x="270" y="830" width="50" height="48" as="geometry" />
        </mxCell>
        <mxCell id="jeN-R2pzI65hk0BV5s3f-38" value="" style="sketch=0;html=1;dashed=0;whitespace=wrap;fillColor=#2875E2;strokeColor=#ffffff;points=[[0.005,0.63,0],[0.1,0.2,0],[0.9,0.2,0],[0.5,0,0],[0.995,0.63,0],[0.72,0.99,0],[0.5,1,0],[0.28,0.99,0]];verticalLabelPosition=bottom;align=center;verticalAlign=top;shape=mxgraph.kubernetes.icon;prIcon=pod" vertex="1" parent="1">
          <mxGeometry x="220" y="830" width="50" height="48" as="geometry" />
        </mxCell>
        <mxCell id="jeN-R2pzI65hk0BV5s3f-40" value="" style="sketch=0;html=1;dashed=0;whitespace=wrap;fillColor=#2875E2;strokeColor=#ffffff;points=[[0.005,0.63,0],[0.1,0.2,0],[0.9,0.2,0],[0.5,0,0],[0.995,0.63,0],[0.72,0.99,0],[0.5,1,0],[0.28,0.99,0]];verticalLabelPosition=bottom;align=center;verticalAlign=top;shape=mxgraph.kubernetes.icon;prIcon=pod" vertex="1" parent="1">
          <mxGeometry x="471.25" y="830" width="50" height="48" as="geometry" />
        </mxCell>
        <mxCell id="jeN-R2pzI65hk0BV5s3f-41" value="" style="sketch=0;html=1;dashed=0;whitespace=wrap;fillColor=#2875E2;strokeColor=#ffffff;points=[[0.005,0.63,0],[0.1,0.2,0],[0.9,0.2,0],[0.5,0,0],[0.995,0.63,0],[0.72,0.99,0],[0.5,1,0],[0.28,0.99,0]];verticalLabelPosition=bottom;align=center;verticalAlign=top;shape=mxgraph.kubernetes.icon;prIcon=pod" vertex="1" parent="1">
          <mxGeometry x="600" y="830" width="50" height="48" as="geometry" />
        </mxCell>
        <mxCell id="jeN-R2pzI65hk0BV5s3f-42" value="" style="sketch=0;html=1;dashed=0;whitespace=wrap;fillColor=#2875E2;strokeColor=#ffffff;points=[[0.005,0.63,0],[0.1,0.2,0],[0.9,0.2,0],[0.5,0,0],[0.995,0.63,0],[0.72,0.99,0],[0.5,1,0],[0.28,0.99,0]];verticalLabelPosition=bottom;align=center;verticalAlign=top;shape=mxgraph.kubernetes.icon;prIcon=pod" vertex="1" parent="1">
          <mxGeometry x="550" y="830" width="50" height="48" as="geometry" />
        </mxCell>
        <mxCell id="jeN-R2pzI65hk0BV5s3f-43" value="" style="sketch=0;html=1;dashed=0;whitespace=wrap;fillColor=#2875E2;strokeColor=#ffffff;points=[[0.005,0.63,0],[0.1,0.2,0],[0.9,0.2,0],[0.5,0,0],[0.995,0.63,0],[0.72,0.99,0],[0.5,1,0],[0.28,0.99,0]];verticalLabelPosition=bottom;align=center;verticalAlign=top;shape=mxgraph.kubernetes.icon;prIcon=pod" vertex="1" parent="1">
          <mxGeometry x="650" y="830" width="50" height="48" as="geometry" />
        </mxCell>
      </root>
    </mxGraphModel>
  </diagram>
</mxfile>
